<svg width="1000" height="1000" viewBox="0 0 1000 1000" fill="none" xmlns="http://www.w3.org/2000/svg"> <path d="M230.001 424.18C230.001 424.18 176.171 264.9 363.931 284.34C551.691 303.78 461.981 233.28 532.931 189.53C603.881 145.78 812.931 281.89 725.471 413.17C638.011 544.45 865.241 424.36 912.641 621.78C941.891 743.61 869.321 833.28 809.451 884.11" stroke="#CCDDE2" stroke-width="5.47" stroke-miterlimit="10"/> <path d="M827.762 731.9C813.652 650.19 763.692 577.07 682.522 550.9C661.757 544.243 640.525 539.145 619.002 535.65V535.76C617.88 542.543 615.222 548.981 611.232 554.58C602.772 566.17 591.112 575.69 577.612 580.65C563.832 585.75 546.762 586.41 533.972 578.39C526.272 573.57 518.802 565.08 517.452 555.92C515.912 545.6 521.172 535.83 528.572 529.01C465.852 529.52 406.852 539.84 359.572 551.59C361.21 558.451 363.48 565.146 366.352 571.59C370.37 580.573 376.05 588.716 383.092 595.59C391.874 586.889 399.564 577.151 405.992 566.59C412.14 568.602 417.561 572.378 421.581 577.447C425.601 582.516 428.042 588.654 428.602 595.1V595.43C431.082 618.84 408.542 636.43 389.602 647.25C367.722 659.83 343.332 669.25 319.372 677.08C309.492 680.32 296.652 683.08 286.222 679.7C285.098 679.342 284.002 678.904 282.942 678.39C272.542 673.29 265.582 662.6 260.152 652.83C244.682 625.08 234.622 594.83 227.802 563.78C180.472 569.83 175.052 537.78 172.242 529.92L131.752 643.11C129.628 651.246 129.398 659.761 131.08 668C132.762 676.239 136.311 683.983 141.453 690.636C146.596 697.289 153.196 702.674 160.745 706.378C168.294 710.082 176.593 712.005 185.002 712H352.622L428.762 907.3L450.342 962.73H573.602C563.602 962.73 558.132 960.29 554.162 956.31C550.061 952.208 547.753 946.649 547.742 940.85C547.742 928.85 557.592 919.01 573.602 919.01H574.732C573.522 919.01 572.362 918.9 571.152 918.79C571.901 918.709 572.646 918.585 573.382 918.42C572.589 918.401 571.798 918.341 571.012 918.24C578.233 917.387 584.924 914.024 589.917 908.737C594.909 903.451 597.884 896.578 598.322 889.32C598.342 888.943 598.342 888.566 598.322 888.19V887.61C598.149 880.169 595.305 873.038 590.309 867.521C585.313 862.003 578.499 858.468 571.112 857.56C571.952 857.49 572.752 857.42 573.562 857.42C572.832 857.24 572.022 857.13 571.262 857.02C572.462 856.91 573.672 856.83 574.832 856.83L665.012 857.31L681.602 857.38H701.292C702.202 857.38 703.122 857.38 703.992 857.49L733.242 857.64L752.782 857.75C760.948 857.818 768.755 861.118 774.495 866.928C780.235 872.737 783.441 880.583 783.412 888.75C783.401 893.368 782.331 897.921 780.282 902.06C788.665 900.987 796.44 897.11 802.342 891.06C816.412 876.69 822.472 855.18 826.662 836.06C834.072 802 833.632 766.11 827.762 731.9ZM599.922 734.2C582.932 760.35 554.002 758 554.002 758C554.002 758 551.602 760.34 546.002 750.38C540.402 740.42 524.452 733.61 524.452 733.61C523.182 743.61 520.552 758.81 494.452 739.11C468.352 719.41 476.222 690.69 478.452 675.52C480.682 660.35 489.572 655.32 489.572 655.32L500.072 649.78C500.072 649.78 469.702 641.97 468.242 641.68C466.782 641.39 439.732 618.74 467.182 612.76C494.632 606.78 537.422 630.56 545.692 635.26C553.962 639.96 602.292 680.84 602.292 680.84C602.292 680.84 617.002 708.09 599.922 734.2Z" fill="#353642"/> <path d="M227.762 563.8C227.762 563.8 250.652 561.02 259.222 544.68L251.752 586.59C251.752 586.59 342.812 555.59 359.512 551.59C359.512 551.59 364.892 586.28 386.312 595.59L408.412 567.49C408.412 567.49 436.122 574.49 428.542 612.25C420.962 650.01 316.122 681.57 298.342 680.84C280.562 680.11 261.422 669.17 241.822 610.38L227.762 563.8Z" fill="#353642"/> <path d="M265.05 470.44C270.85 479.88 276.68 489.3 282.7 498.6C286.41 504.33 293.17 512.5 285.98 518.49C283.64 520.284 280.814 521.33 277.87 521.49C273.25 521.9 268.4 520.79 265.59 516.82L251.59 493.62C248.799 488.993 244.369 485.587 239.181 484.078C233.992 482.57 228.426 483.071 223.59 485.48V485.48" stroke="black" stroke-width="5.47" stroke-miterlimit="10"/> <path d="M318.002 501C321.662 509.7 319.182 515.31 314.902 518.13C307.902 522.72 298.532 520.52 293.572 513.82L265.102 470.49" stroke="black" stroke-width="5.47" stroke-miterlimit="10"/> <path d="M289.152 457.84C299.512 470.44 312.582 493.84 319.812 503.61C327.042 513.38 338.222 507.49 338.222 507.49C347.302 502.6 345.762 494.49 341.792 484.64C332.012 460.46 318.052 444.38 302.482 433.84C254.232 401.2 204.732 425.28 190.002 481.62L131.752 643.11C129.628 651.247 129.398 659.762 131.08 668.001C132.762 676.24 136.311 683.984 141.453 690.637C146.596 697.29 153.196 702.675 160.745 706.379C168.294 710.082 176.593 712.005 185.002 712H352.622L450.372 962.74" stroke="black" stroke-width="5.47" stroke-miterlimit="10"/> <path d="M349.002 473.55C361.002 469.39 360.452 450.25 343.422 443.79C324.612 436.65 291.212 426.55 282.822 424.03C282.77 423.99 282.707 423.966 282.642 423.96C282.052 423.78 281.642 423.63 281.322 423.56L280.852 423.41" stroke="black" stroke-width="5.47" stroke-miterlimit="10"/> <path d="M526.299 664.92C515.799 652.3 487.059 645.15 468.299 641.69C465.146 641.098 462.271 639.497 460.106 637.129C457.942 634.761 456.606 631.754 456.299 628.56C456.081 626.406 456.33 624.23 457.029 622.18C458.147 619.033 460.29 616.353 463.113 614.569C465.936 612.785 469.277 612 472.599 612.34C504.599 615.58 537.599 625.65 562.009 647.34C562.009 647.34 680.339 737.64 694.469 746.43C700.299 749.97 705.739 745.79 701.789 740.23L700.549 738.11C693.594 726.174 685.362 715.029 675.999 704.87" stroke="black" stroke-width="5.47" stroke-miterlimit="10"/> <path d="M528.49 529C379.67 530.24 251.75 586.58 251.75 586.58L264.52 515" stroke="black" stroke-width="5.47" stroke-miterlimit="10"/> <path d="M759.629 918.57C759.629 918.57 743.419 914.9 739.109 927.88C734.799 940.86 730.299 961.51 761.289 962.73C792.279 963.95 774.079 957.86 772.289 947.83C770.499 937.8 759.629 918.57 759.629 918.57Z" fill="#353642"/> <path d="M511.999 681.39C511.999 681.39 494.509 668.13 478.759 681.57C478.096 682.154 477.517 682.827 477.039 683.57" stroke="black" stroke-width="5.47" stroke-miterlimit="10"/> <g opacity="0.77"> <path opacity="0.77" d="M293.512 513.77C298.512 520.48 307.872 522.67 314.842 518.07C319.072 515.27 321.552 509.69 317.982 501.07C318.632 502.02 319.222 502.86 319.802 503.63C327.022 513.44 338.212 507.53 338.212 507.53C347.292 502.64 345.762 494.53 341.792 484.67C337.907 474.904 332.81 465.665 326.622 457.17C330.672 453.38 335.482 449.55 340.552 451.23C346.022 453.05 347.552 459.91 348.172 465.63C348.462 468.29 348.752 470.92 349.042 473.58L353.422 512.74C354.882 525.74 356.342 538.93 359.512 551.62C361.15 558.481 363.42 565.176 366.292 571.62C370.31 580.603 375.99 588.746 383.032 595.62C391.814 586.919 399.504 577.181 405.932 566.62C412.08 568.632 417.501 572.408 421.521 577.477C425.541 582.546 427.982 588.685 428.542 595.13V595.46C431.022 618.87 408.482 636.46 389.542 647.28C367.662 659.86 343.272 669.28 319.312 677.11C309.432 680.35 296.592 683.11 286.162 679.73C285.038 679.372 283.942 678.934 282.882 678.42C272.482 673.32 265.522 662.63 260.092 652.86C234.092 606.11 223.292 552.43 217.602 499.27C228.982 497.7 240.322 495.95 251.522 493.54C251.522 493.54 251.522 493.62 251.592 493.65L264.502 515.06L265.562 516.84C268.362 520.84 273.212 521.91 277.842 521.51C280.785 521.364 283.613 520.317 285.942 518.51C293.122 512.51 286.382 504.37 282.662 498.64" fill="white"/> <path opacity="0.77" d="M293.512 513.77C298.512 520.48 307.872 522.67 314.842 518.07C319.072 515.27 321.552 509.69 317.982 501.07C318.632 502.02 319.222 502.86 319.802 503.63C327.022 513.44 338.212 507.53 338.212 507.53C347.292 502.64 345.762 494.53 341.792 484.67C337.907 474.904 332.81 465.665 326.622 457.17C330.672 453.38 335.482 449.55 340.552 451.23C346.022 453.05 347.552 459.91 348.172 465.63C348.462 468.29 348.752 470.92 349.042 473.58L353.422 512.74C354.882 525.74 356.342 538.93 359.512 551.62C361.15 558.481 363.42 565.176 366.292 571.62C370.31 580.603 375.99 588.746 383.032 595.62C391.814 586.919 399.504 577.181 405.932 566.62C412.08 568.632 417.501 572.408 421.521 577.477C425.541 582.546 427.982 588.685 428.542 595.13V595.46C431.022 618.87 408.482 636.46 389.542 647.28C367.662 659.86 343.272 669.28 319.312 677.11C309.432 680.35 296.592 683.11 286.162 679.73C285.038 679.372 283.942 678.934 282.882 678.42C272.482 673.32 265.522 662.63 260.092 652.86C234.092 606.11 223.292 552.43 217.602 499.27C228.982 497.7 240.322 495.95 251.522 493.54C251.522 493.54 251.522 493.62 251.592 493.65L264.502 515.06L265.562 516.84C268.362 520.84 273.212 521.91 277.842 521.51C280.785 521.364 283.613 520.317 285.942 518.51C293.122 512.51 286.382 504.37 282.662 498.64" fill="#3FBDF1"/> <path opacity="0.77" d="M296.582 516.94C301.012 522.94 308.582 522.18 314.842 518.07C318.622 515.57 321.722 516.3 318.532 508.59C319.122 509.43 319.202 506.59 319.722 507.22C326.172 515.98 319.802 503.6 319.802 503.6C328.802 514.97 348.392 504.26 344.802 495.47C341.002 486 337.002 472 331.932 465C335.932 461.22 335.162 461.78 340.252 464.79C341.62 465.669 342.764 466.853 343.596 468.25C344.427 469.647 344.922 471.218 345.042 472.84C345.452 476.65 345.862 480.3 346.272 484.02L350.172 519.02C351.482 530.65 352.782 542.4 355.612 553.72C357.075 559.841 359.104 565.813 361.672 571.56C365.252 579.47 376.752 592.64 383.032 598.67C390.842 590.92 400.202 576.67 405.932 567.2C416.932 570.58 416.452 581.1 417.232 592.59V592.89C419.452 613.78 399.332 629.47 382.472 639.14C362.932 650.37 341.162 658.77 319.772 665.77C310.952 668.67 299.492 671.17 290.182 668.11C289.178 667.793 288.199 667.402 287.252 666.94C277.972 662.38 271.752 652.85 266.902 644.12C245.672 605.99 235.822 562.7 230.402 519.3C230.005 516.052 230.883 512.778 232.853 510.166C234.823 507.554 237.731 505.809 240.962 505.3C247.052 504.3 253.122 503.3 259.152 501.96L259.322 502.04L270.842 521.15C273.352 524.7 273.762 521.92 277.892 521.56C280.502 521.33 285.562 520.82 287.582 519.13C293.992 513.79 290.372 511.58 287.052 506.47" fill="#3FBDF1"/> </g> <path d="M509.89 700.69C509.89 700.69 476.68 689.77 476.18 708.13" stroke="black" stroke-width="5.47" stroke-miterlimit="10"/> <path opacity="0.54" d="M212.619 887.72L147.489 720.86C146.682 717.631 146.622 714.261 147.313 711.005C148.004 707.749 149.427 704.694 151.476 702.071C153.524 699.448 156.144 697.326 159.135 695.867C162.127 694.408 165.411 693.65 168.739 693.65H427.439C433.248 693.649 438.889 695.604 443.451 699.199C448.014 702.795 451.233 707.822 452.589 713.47L523.889 880.29C524.66 883.508 524.691 886.859 523.981 890.091C523.271 893.323 521.837 896.352 519.788 898.95C517.74 901.549 515.128 903.649 512.151 905.094C509.174 906.538 505.908 907.289 502.599 907.29H237.709C231.944 907.294 226.343 905.369 221.797 901.823C217.25 898.277 214.02 893.313 212.619 887.72Z" fill="white"/> <path d="M520.702 728.84C520.702 728.84 526.092 733.78 524.042 740.84C522.522 746.07 517.322 749.37 512.172 747.58C495.772 741.91 481.002 732.28 477.402 715.91C475.701 707.622 475.333 699.115 476.312 690.71C477.102 682.92 478.252 674.51 480.872 667.1C484.872 655.72 497.122 647.79 509.012 653.27" stroke="black" stroke-width="5.47" stroke-miterlimit="10"/> <path d="M212.619 887.72L147.489 720.86C146.682 717.631 146.622 714.261 147.313 711.005C148.004 707.749 149.427 704.694 151.476 702.071C153.524 699.448 156.144 697.326 159.135 695.867C162.127 694.408 165.411 693.65 168.739 693.65H427.439C433.248 693.649 438.889 695.604 443.451 699.199C448.014 702.795 451.233 707.822 452.589 713.47L523.889 880.29C524.66 883.508 524.691 886.859 523.981 890.091C523.271 893.323 521.837 896.352 519.788 898.95C517.74 901.549 515.128 903.649 512.151 905.094C509.174 906.538 505.908 907.289 502.599 907.29H237.709C231.944 907.294 226.343 905.369 221.797 901.823C217.25 898.277 214.02 893.313 212.619 887.72Z" fill="#3FBDF1"/> <path d="M212.619 887.72L147.489 720.86C146.682 717.631 146.622 714.261 147.313 711.005C148.004 707.749 149.427 704.694 151.476 702.071C153.524 699.448 156.144 697.326 159.135 695.867C162.127 694.408 165.411 693.65 168.739 693.65H427.439C433.248 693.649 438.889 695.604 443.451 699.199C448.014 702.795 451.233 707.822 452.589 713.47L523.889 880.29C524.66 883.508 524.691 886.859 523.981 890.091C523.271 893.323 521.837 896.352 519.788 898.95C517.74 901.549 515.128 903.649 512.151 905.094C509.174 906.538 505.908 907.289 502.599 907.29H237.709C231.944 907.294 226.343 905.369 221.797 901.823C217.25 898.277 214.02 893.313 212.619 887.72Z" stroke="black" stroke-width="5.47" stroke-linecap="square" stroke-linejoin="round"/> <path d="M222.151 881L162.061 727C161.319 724.021 161.264 720.912 161.902 717.909C162.541 714.906 163.855 712.087 165.745 709.668C167.635 707.249 170.052 705.292 172.812 703.946C175.571 702.6 178.601 701.9 181.671 701.9H420.331C425.69 701.898 430.893 703.701 435.102 707.017C439.311 710.333 442.28 714.97 443.531 720.18L509.321 874.09C510.032 877.06 510.06 880.152 509.403 883.134C508.747 886.116 507.424 888.91 505.533 891.307C503.642 893.704 501.232 895.642 498.485 896.974C495.738 898.307 492.725 898.999 489.671 899H245.291C239.981 899.005 234.821 897.236 230.629 893.976C226.438 890.715 223.454 886.149 222.151 881Z" fill="#3FBDF1"/> <path d="M732.922 856.84L778.682 962.73" stroke="black" stroke-width="5.47" stroke-miterlimit="10"/> <path d="M950 962.73H50" stroke="black" stroke-width="5.47" stroke-miterlimit="10"/> <path d="M524.369 484.81C516.949 492.14 505.869 492.13 499.559 485.35" stroke="black" stroke-width="5.47" stroke-miterlimit="10"/> <path d="M326.621 457.14C330.671 453.35 335.481 449.52 340.551 451.2C346.021 453.02 347.551 459.88 348.171 465.6C349.924 481.32 351.674 497.024 353.421 512.71C355.641 532.71 357.981 553.19 366.291 571.57C370.31 580.553 375.989 588.696 383.031 595.57" stroke="black" stroke-width="5.47" stroke-miterlimit="10"/> <path d="M428.541 595.45V595.12C427.982 588.675 425.541 582.536 421.521 577.467C417.501 572.399 412.08 568.623 405.931 566.61C399.504 577.171 391.814 586.91 383.031 595.61C360.004 618.507 330.424 633.671 298.391 639C299.931 645.13 303.101 650.71 305.291 656.61C307.481 662.51 308.571 669.34 305.911 675.03C302.551 682.29 292.911 681.34 286.211 679.73C286.141 679.73 286.101 679.73 286.031 679.73" stroke="black" stroke-width="5.47" stroke-miterlimit="10"/> <path d="M251.541 493.53C240.341 495.94 229.001 497.69 217.621 499.26C223.311 552.42 234.071 606.1 260.111 652.85C265.541 662.62 272.501 673.31 282.901 678.41C283.962 678.925 285.058 679.363 286.181 679.72C296.611 683.15 309.451 680.34 319.331 677.1C343.331 669.26 367.681 659.85 389.561 647.27C408.451 636.44 430.991 618.86 428.561 595.45C428.326 592.872 427.799 590.329 426.991 587.87" stroke="black" stroke-width="5.47" stroke-miterlimit="10"/> <path d="M438.82 387.49C440.498 394.488 444.329 400.782 449.774 405.486C455.219 410.191 462.003 413.067 469.17 413.71C469.765 410.823 471.056 408.125 472.93 405.85C480.93 396.42 484.34 414.11 509.93 401.41C545.39 383.77 558.85 393.89 558.85 393.89C560.03 394.77 559.85 402.89 560.05 404.37C561.05 412.8 561.95 421.19 562.94 429.61C563.54 434.75 564.13 439.85 564.69 444.95C565.173 444.083 565.707 443.244 566.29 442.44C569.52 431.01 575.29 417.51 587.73 423.32C590.249 424.549 592.442 426.354 594.13 428.59C602.38 439.43 596.13 449.9 587.5 457.65C585.337 460.055 582.92 462.217 580.29 464.1C581.71 467.04 587.51 478.71 587.51 478.75C588.11 479.93 608.38 456.99 609.89 454.49C612.146 448.366 613.357 441.906 613.47 435.38C613.8 408.55 602.88 377.32 581.15 361.93C575.76 358.12 577.48 354.45 577.15 349.27C577.127 348.99 577.02 348.724 576.843 348.506C576.665 348.288 576.426 348.129 576.156 348.05C575.886 347.971 575.599 347.976 575.332 348.063C575.065 348.151 574.831 348.317 574.66 348.54C567.85 356.38 550.99 355.6 550.99 355.6C492.47 340.94 472.8 366.96 460.99 371.6C456.172 373.426 450.867 373.514 445.99 371.85C445.703 373.465 444.98 374.97 443.9 376.204C442.82 377.438 441.423 378.353 439.86 378.85L440.16 381.56C440.415 383.633 439.941 385.729 438.82 387.49Z" fill="#3FBDF1"/> <path d="M469.211 413.75C462.044 413.106 455.26 410.23 449.815 405.526C444.37 400.822 440.539 394.527 438.861 387.53V387.53C438.204 384.846 437.789 382.108 437.621 379.35L438.081 379.3C438.71 379.253 439.329 379.118 439.921 378.9C441.484 378.402 442.881 377.487 443.961 376.253C445.041 375.02 445.764 373.514 446.051 371.9C446.234 371.005 446.271 370.086 446.161 369.18L444.661 355.94C444.661 355.94 455.241 363.81 466.981 359.21C478.721 354.61 498.431 328.59 556.981 343.21C556.981 343.21 570.201 343.99 576.981 336.15C577.152 335.926 577.386 335.76 577.653 335.673C577.92 335.585 578.207 335.581 578.477 335.66C578.746 335.739 578.986 335.898 579.163 336.115C579.341 336.333 579.448 336.6 579.471 336.88C579.821 342.07 581.741 345.74 587.141 349.54C608.871 364.94 619.791 396.16 619.451 422.99C619.351 434.12 615.651 445.11 609.941 454.54C608.431 457.04 588.161 479.98 587.561 478.8C587.561 478.8 581.761 467.09 580.341 464.15L580.001 463.5L580.651 463.07C583.065 461.431 585.37 459.637 587.551 457.7C596.171 449.95 602.431 439.48 594.181 428.64C592.493 426.404 590.3 424.598 587.781 423.37C575.301 417.56 569.571 431.06 566.341 442.49C565.714 444.674 565.328 446.921 565.191 449.19C565.041 447.79 564.891 446.44 564.741 445.04C564.181 439.94 563.591 434.84 562.991 429.7C561.991 421.28 561.051 412.89 560.101 404.46C559.951 403.02 560.101 394.86 558.901 393.98C558.901 393.98 545.431 383.86 509.981 401.5C484.391 414.2 480.981 396.5 472.981 405.94C471.107 408.215 469.816 410.913 469.221 413.8C469.038 414.727 468.921 415.666 468.871 416.61C468.852 416.732 468.852 416.857 468.871 416.98C468.751 419.05 468.711 421.11 468.661 423.13C468.471 442.62 470.611 462.98 478.261 481.08C487.561 503.02 512.171 524.66 537.761 514.43C545.761 511.22 552.931 506.05 559.491 500.56" stroke="black" stroke-width="5.47" stroke-miterlimit="10"/> <path d="M486.723 461.285C489.269 460.433 490.497 457.246 489.466 454.167C488.436 451.087 485.537 449.281 482.992 450.133C480.446 450.984 479.218 454.171 480.249 457.251C481.279 460.331 484.178 462.137 486.723 461.285Z" fill="black"/> <path d="M524.797 460.068C527.343 459.217 528.571 456.03 527.54 452.95C526.51 449.87 523.611 448.064 521.066 448.916C518.52 449.768 517.292 452.955 518.323 456.034C519.353 459.114 522.252 460.92 524.797 460.068Z" fill="black"/> <path d="M510.241 466.66C510.241 466.66 497.571 473.85 496.801 466.39C496.561 464.09 493.461 441.56 493.461 441.56C493.461 441.56 483.221 430.71 467.531 438.73" stroke="black" stroke-width="5.47" stroke-miterlimit="10"/> <path d="M507.391 435.25C507.391 435.25 527.851 425.03 541.391 439.76" stroke="black" stroke-width="5.47" stroke-miterlimit="10"/> <path d="M526.15 516.94L528.5 529C521.09 535.83 515.85 545.62 517.38 555.93C518.74 565.07 526.22 573.58 533.89 578.37C546.71 586.37 563.76 585.74 577.56 580.65C591.05 575.65 602.72 566.16 611.18 554.58C615.164 548.982 617.818 542.549 618.94 535.77V535.65" stroke="black" stroke-width="5.47" stroke-miterlimit="10"/> <path d="M528.5 529L533.08 550.78" stroke="black" stroke-width="5.47" stroke-miterlimit="10"/> <path d="M593.272 473.55L600.192 519.5C600.874 523.998 603.148 528.102 606.6 531.065C610.051 534.029 614.452 535.656 619.002 535.65V535.65C640.538 539.14 661.784 544.234 682.562 550.89C763.732 577.07 813.692 650.19 827.802 731.89C833.672 766.1 834.112 801.98 826.742 836C822.552 855.15 816.492 876.66 802.422 891C784.152 909.7 756.112 902 734.522 893.55C667.492 867.48 611.742 821.1 563.602 768C537.862 739.6 504.602 716.84 504.602 716.84" stroke="black" stroke-width="5.47" stroke-miterlimit="10"/> <path d="M244.302 846.53C236.782 846.46 230.232 840.39 228.542 831.94C225.202 815.32 224.322 789.62 248.692 784.01C279.142 777.01 302.562 810.17 314.042 831.13C317.902 838.13 313.532 847.13 306.342 847.13L244.302 846.53Z" fill="#D7E8F0"/> <path d="M254.353 769.9C260.818 765.598 260.917 754.384 254.574 744.853C248.232 735.321 237.85 731.081 231.385 735.383C224.92 739.685 224.821 750.899 231.164 760.43C237.506 769.962 247.888 774.202 254.353 769.9Z" fill="#D7E8F0"/> <path d="M754.771 919.12C754.301 919.19 753.771 919.26 753.311 919.37H753.131L682.001 919L575.271 918.45C574.861 918.45 574.461 918.45 574.061 918.45C573.269 918.431 572.478 918.371 571.691 918.27C578.923 917.43 585.626 914.066 590.621 908.771C595.616 903.476 598.584 896.588 599.001 889.32C599.022 888.944 599.022 888.566 599.001 888.19V887.61C598.972 880.499 596.494 873.615 591.985 868.116C587.475 862.618 581.209 858.84 574.241 857.42C573.511 857.24 572.711 857.13 571.941 857.02C573.151 856.91 574.351 856.83 575.521 856.83L665.691 857.31L682.291 857.38L704.681 857.49C712.348 858.19 719.477 861.724 724.676 867.401C729.875 873.079 732.768 880.492 732.791 888.19C732.792 889.643 732.682 891.094 732.461 892.53C731.396 899.859 727.735 906.561 722.145 911.419C716.555 916.277 709.407 918.967 702.001 919H756.181C753.061 919 753.931 919 754.771 919.12Z" fill="white"/> <path d="M610.49 956.31C612.521 958.353 614.938 959.973 617.601 961.075C620.263 962.177 623.118 962.739 626 962.73H573.62C563.62 962.73 558.16 960.29 554.18 956.31C550.09 952.202 547.786 946.646 547.77 940.85C547.77 928.85 557.61 919.01 573.62 919.01H626C621.675 919.003 617.446 920.28 613.848 922.68C610.251 925.079 607.446 928.493 605.79 932.487C604.134 936.482 603.702 940.879 604.547 945.12C605.393 949.361 607.478 953.255 610.539 956.31H610.49Z" fill="#D7E8F0"/> <path d="M783.479 888.74C783.466 893.359 782.392 897.913 780.339 902.05C778.874 905.178 776.862 908.019 774.399 910.44C770.339 914.464 765.239 917.279 759.669 918.57C757.374 919.1 755.025 919.369 752.669 919.37C753.149 919.26 753.669 919.19 754.129 919.12C753.289 919.04 752.419 919.01 755.549 919.01H701.359C708.77 918.982 715.924 916.292 721.518 911.432C727.113 906.572 730.775 899.864 731.839 892.53C732.06 891.094 732.17 889.643 732.169 888.19C732.146 880.491 729.251 873.076 724.05 867.399C718.85 861.721 711.718 858.187 704.049 857.49L733.299 857.64L752.839 857.75C761.005 857.819 768.812 861.117 774.553 866.924C780.294 872.731 783.503 880.574 783.479 888.74Z" fill="#3FBDF1"/> <path d="M783.48 888.73C783.42 896.901 780.123 904.714 774.312 910.459C768.502 916.204 760.651 919.412 752.48 919.38L574.56 918.46C573.37 918.46 572.18 918.37 570.98 918.25C578.48 917.4 585.408 913.829 590.45 908.212C595.493 902.596 598.3 895.325 598.339 887.777C598.378 880.23 595.648 872.93 590.664 867.261C585.681 861.592 578.791 857.948 571.3 857.02C572.49 856.895 573.685 856.835 574.88 856.84L752.8 857.76C760.97 857.816 768.786 861.106 774.536 866.91C780.286 872.714 783.502 880.56 783.48 888.73Z" stroke="black" stroke-width="5.47" stroke-linecap="square" stroke-linejoin="round"/> <path d="M732.15 888.18C732.134 896.349 728.882 904.179 723.106 909.955C717.329 915.732 709.499 918.984 701.33 919H574.74C573.544 918.993 572.349 918.926 571.16 918.8C578.655 917.91 585.563 914.302 590.575 908.66C595.587 903.017 598.356 895.732 598.356 888.185C598.356 880.638 595.587 873.353 590.575 867.71C585.563 862.068 578.655 858.46 571.16 857.57C572.35 857.46 573.55 857.38 574.74 857.38H701.33C709.495 857.398 717.32 860.649 723.096 866.42C728.871 872.192 732.126 880.015 732.15 888.18V888.18Z" stroke="black" stroke-width="5.47" stroke-linecap="square" stroke-linejoin="round"/> <path d="M547.77 940.86C547.769 943.728 548.334 946.568 549.432 949.218C550.53 951.867 552.14 954.274 554.169 956.3C558.169 960.3 563.599 962.73 573.609 962.73H755.539C752.409 962.73 753.259 962.67 754.109 962.59C748.786 961.964 743.878 959.405 740.316 955.399C736.755 951.394 734.787 946.22 734.787 940.86C734.787 935.5 736.755 930.327 740.316 926.321C743.878 922.316 748.786 919.757 754.109 919.13C753.259 919.05 752.409 918.99 755.539 918.99H573.609C557.589 919 547.77 928.84 547.77 940.86Z" stroke="black" stroke-width="5.47" stroke-linecap="square" stroke-linejoin="round"/> <path d="M604.07 940.86C604.084 946.656 606.392 952.211 610.49 956.31C614.589 960.409 620.144 962.717 625.94 962.73H751.57C752.41 962.73 753.26 962.67 754.11 962.59C748.787 961.964 743.879 959.405 740.317 955.399C736.755 951.394 734.788 946.22 734.788 940.86C734.788 935.5 736.755 930.327 740.317 926.321C743.879 922.316 748.787 919.757 754.11 919.13C753.26 919.05 752.41 918.99 751.57 918.99H625.94C620.145 919.006 614.591 921.315 610.493 925.413C606.395 929.511 604.086 935.065 604.07 940.86V940.86Z" stroke="black" stroke-width="5.47" stroke-linecap="square" stroke-linejoin="round"/> <path d="M400.419 774H344.299C341.732 773.996 339.221 773.244 337.073 771.838C334.924 770.432 333.231 768.432 332.199 766.08C331.801 765.205 331.631 764.243 331.704 763.284C331.778 762.325 332.093 761.401 332.619 760.596C333.146 759.792 333.868 759.134 334.718 758.683C335.568 758.233 336.518 758.005 337.479 758.02H397.139C394.329 762.75 395.759 769.32 400.419 774Z" fill="#D7E8F0"/> <path d="M436.709 768.22C436.706 769.75 436.098 771.216 435.016 772.297C433.935 773.379 432.468 773.988 430.939 773.99H400.419C395.759 769.32 394.329 762.75 397.139 757.99H424.089C426.654 757.991 429.163 758.736 431.312 760.134C433.462 761.533 435.16 763.526 436.199 765.87C436.522 766.612 436.695 767.411 436.709 768.22Z" fill="#3FBDF1"/> <path d="M422.669 774C422.511 774.305 422.327 774.596 422.119 774.87C418.119 780.34 409.429 780.87 402.679 775.93C401.881 775.341 401.126 774.696 400.419 774C395.759 769.33 394.329 762.76 397.139 758C397.297 757.695 397.481 757.404 397.689 757.13C401.689 751.62 410.339 751.13 417.089 756.03C417.901 756.638 418.667 757.307 419.379 758.03C423.999 762.68 425.439 769.21 422.669 774Z" fill="white"/> <path d="M450.819 803.45C450.808 804.981 450.193 806.446 449.106 807.525C448.019 808.604 446.55 809.21 445.019 809.21H386.129C388.969 804.43 387.549 797.91 382.879 793.21H438.199C440.767 793.211 443.28 793.959 445.431 795.363C447.581 796.768 449.276 798.768 450.309 801.12C450.638 801.853 450.812 802.646 450.819 803.45Z" fill="#3FBDF1"/> <path d="M386.131 809.21H358.421C355.856 809.212 353.345 808.468 351.195 807.069C349.045 805.67 347.348 803.676 346.311 801.33C345.984 800.596 345.81 799.804 345.801 799C345.799 798.243 345.948 797.494 346.237 796.794C346.526 796.095 346.95 795.46 347.485 794.924C348.02 794.389 348.656 793.965 349.355 793.676C350.054 793.387 350.804 793.239 351.561 793.24H382.881C387.551 797.91 389.001 804.43 386.131 809.21Z" fill="#D7E8F0"/> <path d="M386.132 809.21C386.001 809.524 385.83 809.82 385.622 810.09C381.622 815.59 372.962 816.09 366.222 811.18C365.406 810.572 364.637 809.903 363.922 809.18C359.292 804.51 357.872 797.99 360.642 793.18C360.802 792.872 360.985 792.578 361.192 792.3C365.192 786.83 373.882 786.3 380.622 791.25C381.424 791.833 382.18 792.478 382.882 793.18C387.552 797.91 389.002 804.43 386.132 809.21Z" fill="white"/> <path d="M405.75 844.18H370.49C367.926 844.177 365.418 843.431 363.268 842.033C361.119 840.635 359.421 838.643 358.38 836.3C357.983 835.422 357.814 834.458 357.888 833.498C357.963 832.537 358.278 831.611 358.805 830.804C359.333 829.998 360.055 829.337 360.905 828.884C361.755 828.43 362.706 828.199 363.67 828.21H402.47C399.69 833 401.12 839.51 405.75 844.18Z" fill="#3FBDF1"/> <path d="M462.89 838.46C462.882 839.981 462.272 841.438 461.192 842.51C460.112 843.582 458.652 844.182 457.13 844.18H405.75C401.12 839.51 399.69 832.99 402.47 828.18H450.27C452.839 828.18 455.351 828.929 457.502 830.333C459.652 831.738 461.347 833.738 462.38 836.09C462.71 836.837 462.883 837.643 462.89 838.46Z" fill="#D7E8F0"/> <path d="M428.002 844.18C427.842 844.487 427.658 844.781 427.452 845.06C423.452 850.56 414.802 851.06 408.052 846.15C407.241 845.539 406.476 844.871 405.762 844.15C401.132 839.48 399.702 832.96 402.482 828.15C402.635 827.841 402.815 827.546 403.022 827.27C407.022 821.8 415.712 821.33 422.462 826.22C423.264 826.803 424.02 827.448 424.722 828.15C429.382 832.88 430.802 839.44 428.002 844.18Z" fill="white"/> <path d="M161.609 525.37L162.489 525.62L162.159 526.9C161.95 526.4 161.767 525.889 161.609 525.37Z" fill="#353642"/> <path d="M318.105 605.374C331.268 601.51 338.185 585.588 333.554 569.812C328.923 554.037 314.498 544.38 301.334 548.244C288.171 552.109 281.254 568.03 285.885 583.806C290.516 599.582 304.942 609.238 318.105 605.374Z" fill="#D7E8F0"/> </svg> 